<?xml version="1.0" encoding="UTF-8"?>
<svg width="39px" height="38px" viewBox="0 0 39 38" version="1.1" xmlns="http://www.w3.org/2000/svg" xmlns:xlink="http://www.w3.org/1999/xlink">
    <!-- Generator: Sketch 53.2 (72643) - https://sketchapp.com -->
    <title>Group 2</title>
    <desc>Created with Sketch.</desc>
    <g id="Symbols" stroke="none" strokeWidth="1" fill="none" fillRule="evenodd">
        <g id="ic/feature/air-vents" transform="translate(-11.000000, -11.000000)" fillRule="nonzero" stroke="#FFFFFF" strokeWidth="2">
            <g id="Group-2" transform="translate(11.000000, 12.000000)">
                <path d="M32,18 C35.3137085,18 38,15.3137085 38,12 C38,8.6862915 35.3137085,6 32,6 C30.3412949,6 28.8397946,6.67307415 27.753722,7.76099969" id="Shape-Copy-4"></path>
                <path d="M17,12 C20.3137085,12 23,9.3137085 23,6 C23,2.6862915 20.3137085,0 17,0 C15.3412949,0 13.8397946,0.673074153 12.753722,1.76099969" id="Shape-Copy-5"></path>
                <path d="M17,36 C20.3137085,36 23,33.3137085 23,30 C23,26.6862915 20.3137085,24 17,24 C15.3412949,24 13.8397946,24.6730742 12.753722,25.7609997" id="Shape-Copy-6" transform="translate(17.000000, 30.000000) scale(1, -1) translate(-17.000000, -30.000000) "></path>
                <path d="M17,24 L0,24" id="Path-18"></path>
                <path d="M17,12 L0,12" id="Path-18-Copy"></path>
                <path d="M32,18 L-3.7658765e-13,18" id="Path-18-Copy-2"></path>
            </g>
        </g>
    </g>
</svg>