<?xml version="1.0" encoding="UTF-8"?>
<svg width="42px" className="text-black" height="38px" viewBox="0 0 42 38" version="1.1" xmlns="http://www.w3.org/2000/svg" xmlns:xlink="http://www.w3.org/1999/xlink">
    <!-- Generator: Sketch 53.2 (72643) - https://sketchapp.com -->
    <title>Group 2</title>
    <desc>Created with Sketch.</desc>
    <g id="Symbols" stroke="none" strokeWidth="1" fill="none" fillRule="evenodd">
        <g id="ic/feature/vertical-adjustment" transform="translate(-9.000000, -11.000000)" >
            <g id="Group-2" transform="translate(10.000000, 11.000000)">
                <path d="M-1.42108547e-14,17.0003623 C6.46219881,15.6886052 13.1506832,15 20,15 C26.8493168,15 33.5378012,15.6886052 40,17.0003623" id="Path" stroke="#FFFFFF" strokeWidth="2" opacity="0.497884115" transform="translate(20.000000, 16.000181) scale(1, -1) translate(-20.000000, -16.000181) "></path>
                <path d="M3.55271368e-15,21.5 C6.46219881,20.1882429 13.1506832,17 20,17 C26.8493168,17 33.5378012,20.1882429 40,21.5" id="Path-Copy" stroke="#FFFFFF" strokeWidth="2" opacity="0.497884115" transform="translate(20.000000, 19.250000) scale(1, -1) translate(-20.000000, -19.250000) "></path>
                <g id="Group" transform="translate(18.000000, 26.000000)">
                    <polygon id="Path" fill="#FFFFFF" transform="translate(2.500000, 9.500000) rotate(-270.000000) translate(-2.500000, -9.500000) " points="5 9.5 0 12 8.8817842e-16 7"></polygon>
                    <path d="M2.5,7 L2.5,0" id="Path-3" stroke="#FFFFFF"></path>
                </g>
                <g id="Group-Copy" transform="translate(20.500000, 6.000000) rotate(-180.000000) translate(-20.500000, -6.000000) translate(18.000000, 0.000000)">
                    <polygon id="Path" fill="#FFFFFF" transform="translate(2.500000, 9.500000) rotate(-270.000000) translate(-2.500000, -9.500000) " points="5 9.5 0 12 8.8817842e-16 7"></polygon>
                    <path d="M2.5,7 L2.5,0" id="Path-3" stroke="#FFFFFF"></path>
                </g>
            </g>
        </g>
    </g>
</svg>