<?xml version="1.0" encoding="UTF-8"?>
<svg  className=" hover:text-gray-900 dark:hover:text-gray-400"  viewBox="0 0 20 19" version="1.1" xmlns="http://www.w3.org/2000/svg" xmlns:xlink="http://www.w3.org/1999/xlink">
 
    <g id="Symbols" stroke="none" stroke-width="1" fill="none" fillRule="evenodd">
        <g id="ic/feature/pc" transform="translate(-20.000000, -21.000000)" fill="#FFFFFF" fillRule="nonzero">
            <path d="M24.8625,21.5 C27.5125,21.5 29.1125,22.625 29.1125,25.2 L29.1125,28.325 C29.1125,30.9 27.5125,32.025 24.8625,32.025 L22.8375,32.025 L22.8375,38.175 C22.8375,38.7 22.5375,39 22.0125,39 L21.3125,39 C20.7625,39 20.4875,38.7 20.4875,38.175 L20.4875,22.325 C20.4875,21.8 20.7625,21.5 21.3125,21.5 L24.8625,21.5 Z M26.7625,27.875 L26.7625,25.65 C26.7625,24.1 26.0625,23.575 24.7625,23.575 L22.8375,23.575 L22.8375,29.925 L24.7625,29.925 C26.0625,29.925 26.7625,29.4 26.7625,27.875 Z M38.8875,31.95 C39.4375,31.95 39.7125,32.25 39.7125,32.775 L39.7125,35.5 C39.7125,38.125 38.1125,39.2 35.4625,39.2 L35.4125,39.2 C32.7625,39.2 31.1625,38.15 31.1625,35.5 L31.1625,25 C31.1625,22.475 32.7625,21.3 35.4125,21.3 L35.4625,21.3 C38.1125,21.3 39.7125,22.475 39.7125,25 L39.7125,27.3 C39.7125,27.825 39.4375,28.125 38.8875,28.125 L38.1875,28.125 C37.6625,28.125 37.3625,27.825 37.3625,27.3 L37.3625,25.45 C37.3625,23.925 36.7125,23.375 35.4375,23.375 C34.1625,23.375 33.5125,23.925 33.5125,25.45 L33.5125,35.05 C33.5125,36.575 34.1625,37.125 35.4375,37.125 C36.7125,37.125 37.3625,36.575 37.3625,35.05 L37.3625,32.775 C37.3625,32.25 37.6625,31.95 38.1875,31.95 L38.8875,31.95 Z" id="PC"></path>
        </g>
    </g>
</svg>