<?xml version="1.0" encoding="UTF-8"?>
<svg width="70px" height="70px" viewBox="0 0 70 70" version="1.1" xmlns="http://www.w3.org/2000/svg" xmlns:xlink="http://www.w3.org/1999/xlink">
    <!-- Generator: Sketch 55.2 (78181) - https://sketchapp.com -->
    <title>cursor/dragging</title>
    <desc>Created with Sketch.</desc>
    <g id="cursor/dragging" stroke="none" strokeWidth="1" fill="none" fillRule="evenodd">
        <g id="cursor" fillRule="nonzero">
            <circle id="Oval" stroke="#FFFFFF" strokeWidth="2" cx="35" cy="35" r="34"></circle>
            <g id="Group" transform="translate(24.000000, 30.000000)" fill="#FFFFFF">
                <path d="M18.4396023,1.70336364 L22.5042804,8.20684863 C22.6560214,8.44963426 22.5822152,8.76946131 22.3394295,8.92120233 C22.2570394,8.97269616 22.1618365,9 22.0646781,9 L13.9353219,9 C13.6490175,9 13.4169219,8.76790444 13.4169219,8.48160005 C13.4169219,8.38444168 13.4442258,8.28923876 13.4957196,8.20684863 L17.5603977,1.70336364 C17.7121387,1.46057801 18.0319658,1.38677177 18.2747514,1.53851279 C18.3415053,1.58023399 18.3978811,1.63660973 18.4396023,1.70336364 Z" id="Triangle" transform="translate(18.000000, 5.000000) rotate(-270.000000) translate(-18.000000, -5.000000) "></path>
                <path d="M4.43960225,1.70336359 L8.50428043,8.20684869 C8.65602144,8.4496343 8.5822152,8.76946132 8.33942959,8.92120233 C8.25703946,8.97269616 8.16183655,9 8.06467818,9 L-0.0646781837,9 C-0.350982549,9 -0.583078094,8.76790445 -0.583078094,8.48160009 C-0.583078094,8.38444172 -0.555774259,8.28923881 -0.504280429,8.20684869 L3.56039775,1.70336359 C3.71213876,1.46057798 4.03196579,1.38677174 4.2747514,1.53851275 C4.34150531,1.58023394 4.39788105,1.63660969 4.43960225,1.70336359 Z" id="Triangle-Copy" transform="translate(4.000000, 5.000000) scale(-1, 1) rotate(-270.000000) translate(-4.000000, -5.000000) "></path>
            </g>
        </g>
    </g>
</svg>