<?xml version="1.0" encoding="UTF-8"?>
<svg width="45px" height="38px" viewBox="0 0 45 38" version="1.1" xmlns="http://www.w3.org/2000/svg" xmlns:xlink="http://www.w3.org/1999/xlink">
    <!-- Generator: Sketch 53.2 (72643) - https://sketchapp.com -->
    <title>Group</title>
    <desc>Created with Sketch.</desc>
    <g id="Symbols" stroke="none" stroke-width="1" fill="none" fillRule="evenodd">
        <g id="ic/feature/removable-visor" transform="translate(-9.000000, -10.000000)" fillRule="nonzero" stroke="#FFFFFF" stroke-width="2">
            <g id="Group" transform="translate(10.000000, 11.000000)">
                <g id="Group-Copy" transform="translate(11.000000, 0.000000)" stroke-linecap="round" stroke-linejoin="round">
                    <path d="M14,17.5 C15.9057167,15.7576116 20.452352,10.5939684 31.0279891,7.6808442 M21.3922984,20.9791252 C23.7084424,19.624638 26.9601271,17.8669633 30.9534559,16.3461136 M30.973013,25.7472215 C29.2168509,25.3686571 27.3521778,25.6748954 25.7842666,26.6559381 L20.0132549,30.2668625 C18.000814,31.5260477 15.4873356,31.6794838 13.3366738,30.6744365 L2.49877664,25.6096843 C1.09780213,24.9549809 0.492829875,23.2885247 1.14753329,21.8875502 C1.14868652,21.8850824 1.14984335,21.8826163 1.15100377,21.880152 C6.77199789,9.94295829 16.7485371,2.90260424 31.0806214,0.759089832" id="Shape"></path>
                    <path d="M31.0764593,30.3945371 C29.3011682,29.9931133 27.4084566,30.2940174 25.8217508,31.2868199 L20.0457147,34.9008881 C18.0355367,36.1586574 15.5220145,36.3118817 13.3730997,35.3076509" id="Path"></path>
                </g>
                <path d="M9.86665447,19.8020772 C5.69615242,26.0466019 5.19615242,27.4560283 0.196152423,32.0502918 C-0.303847577,32.9597181 0.196152423,34.0502918 1.19615242,34.2314391 C9.21927578,32.8956521 14.6961524,33.0096833 21.1961524,33.8543852" id="Shape" opacity="0.500767299"></path>
            </g>
        </g>
    </g>
</svg>