<?xml version="1.0" encoding="UTF-8"?>
<svg width="30px" height="30px" viewBox="0 0 30 30" version="1.1" xmlns="http://www.w3.org/2000/svg" xmlns:xlink="http://www.w3.org/1999/xlink">
    <!-- Generator: Sketch 53.2 (72643) - https://sketchapp.com -->
    <title>Fill 1</title>
    <desc>Created with Sketch.</desc>
    <g id="Symbols" stroke="none" stroke-width="1" fill="none" fillRule="evenodd">
        <g id="ic/feature/light" transform="translate(-15.000000, -15.000000)" fill="#FFFFFF">
            <path d="M38.4227217,25.8448677 C38.3103199,26.3032169 38.0859596,26.6905235 37.8121465,27.0511022 C37.1407403,27.9352104 36.2706361,28.5780221 35.3166,29.1133259 C33.6663821,30.0392152 31.8754402,30.5654772 30.0510537,31.0033582 C29.47082,31.1426614 28.9009301,31.3339797 28.3386256,31.536327 C28.1649003,31.5988743 28.0319096,31.7766797 27.8803001,31.9017246 C28.0467848,31.9916457 28.204699,32.1336813 28.3811826,32.1634398 C29.8780672,32.415815 31.3755428,32.6761888 32.9020302,32.6506035 C33.0712732,32.6477717 33.2400729,32.6237762 33.4789144,32.6037054 C33.2294336,32.8902606 33.027534,33.1467096 32.8008094,33.3785173 C31.4591792,34.750286 29.8513213,35.6790071 28.0397905,36.2634942 C26.5574857,36.7417652 25.0365642,36.950869 23.4822474,36.9291588 C22.8994524,36.9210113 22.3166082,36.9209616 21.7338626,36.9109759 C21.5748155,36.9082435 21.4663049,36.9563835 21.3608482,37.089278 C19.2893451,39.7006166 17.2117836,42.3070866 15.1350102,44.9141527 C15.1054567,44.9512638 15.0706329,44.9841023 15,45 C15.1279174,44.6213874 15.2484956,44.2400425 15.3849835,43.8646095 C17.0072242,39.402635 18.9919877,35.1139449 21.4472429,31.0538332 C23.2471001,28.0775441 25.2759968,25.2715586 27.6860844,22.7631573 C29.9453507,20.4117453 32.4496646,18.3829067 35.3913704,16.9470008 C37.5700048,15.8835968 39.8606963,15.2149515 42.2751184,15.0325259 C43.1533006,14.9662029 44.0405458,15.0218446 45,15.0218446 C42.7609779,17.9918741 39.7584412,19.5940594 36.2828023,20.4359396 C38.023257,20.6019707 39.7375567,20.5255129 41.4189536,20.0184771 C41.438853,20.0367594 41.4587523,20.0550914 41.4786517,20.0734234 C41.2711862,20.4399636 41.0912054,20.8259289 40.851625,21.1696659 C39.7344044,22.772994 38.1766889,23.7731551 36.3809199,24.4371802 C35.1799644,24.8812712 33.9368951,25.1332987 32.6674739,25.265746 C32.5746267,25.2754833 32.4823213,25.2906855 32.3906069,25.3376829 C34.3733017,25.781923 36.3521053,26.2280012 38.4227217,25.8448677" id="Fill-1"></path>
        </g>
    </g>
</svg>