<?xml version="1.0" encoding="UTF-8"?>
<svg width="22px" className="text-black" height="20px" viewBox="0 0 22 20" version="1.1" xmlns="http://www.w3.org/2000/svg" xmlns:xlink="http://www.w3.org/1999/xlink">
    <!-- Generator: Sketch 53.2 (72643) - https://sketchapp.com -->
    <title>Combined Shape</title>
    <desc>Created with Sketch.</desc>
    <g id="Symbols" stroke="none" strokeWidth="1" fill="none" fillRule="evenodd">
        <g id="ic/stores" transform="translate(-19.000000, -19.000000)" fill="#FFFFFF" >
            <g id="Combined-Shape">
                <path d="M38,28.6 L38,38 C38,38.5522847 37.5522847,39 37,39 L23,39 C22.4477153,39 22,38.5522847 22,38 L22,28.6 L19,28.6 L30,19 L41,28.6 L38,28.6 Z M28,29 C27.4477153,29 27,29.4477153 27,30 L27,33 C27,33.5522847 27.4477153,34 28,34 L32,34 C32.5522847,34 33,33.5522847 33,33 L33,30 C33,29.4477153 32.5522847,29 32,29 L28,29 Z"></path>
            </g>
        </g>
    </g>
</svg>