<?xml version="1.0" encoding="UTF-8"?>
<svg width="18px" height="18px" viewBox="0 0 18 18" version="1.1" xmlns="http://www.w3.org/2000/svg" xmlns:xlink="http://www.w3.org/1999/xlink">
    <!-- Generator: Sketch 53.2 (72643) - https://sketchapp.com -->
    <title>Oval</title>
    <desc>Created with Sketch.</desc>
    <g id="Symbols" stroke="none" strokeWidth="1" fill="none" fillRule="evenodd">
        <g id="Tooltip/Product" transform="translate(-69.000000, -11.000000)" fill="#FFFFFF" fillRule="nonzero">
            <path d="M78,29 C73.0294373,29 69,24.9705627 69,20 C69,15.0294373 73.0294373,11 78,11 C82.9705627,11 87,15.0294373 87,20 C87,24.9705627 82.9705627,29 78,29 Z M79.8793103,23.9206349 C79.8141759,23.9544975 79.708813,23.9936506 79.5632184,24.0380952 C79.4176238,24.0825399 79.2873569,24.1047619 79.1724138,24.1047619 C78.9272018,24.1047619 78.7547898,24.0603179 78.6551724,23.9714286 C78.5555551,23.8825392 78.5057471,23.7153451 78.5057471,23.4698413 C78.5057471,23.3724863 78.5210726,23.2285724 78.5517241,23.0380952 C78.5823756,22.8476181 78.616858,22.6783076 78.6551724,22.5301587 L79.1264368,20.6825397 C79.172414,20.5132267 79.2040229,20.3269851 79.2212644,20.1238095 C79.2385058,19.9206339 79.2471264,19.7788364 79.2471264,19.6984127 C79.2471264,19.3089928 79.1235645,18.9925938 78.8764368,18.7492063 C78.6293091,18.5058189 78.2777801,18.384127 77.8218391,18.384127 C77.5689643,18.384127 77.3007677,18.4338619 77.0172414,18.5333333 C76.7337151,18.6328047 76.4367832,18.7523803 76.1264368,18.8920635 L76,19.4634921 C76.0919545,19.4253966 76.2021066,19.3851854 76.3304598,19.3428571 C76.4588129,19.3005289 76.5842906,19.2793651 76.7068966,19.2793651 C76.9559399,19.2793651 77.1245206,19.3259255 77.2126437,19.4190476 C77.3007667,19.5121698 77.3448276,19.6772475 77.3448276,19.9142857 C77.3448276,20.0455033 77.3304599,20.1904754 77.3017241,20.3492063 C77.2729884,20.5079373 77.2375481,20.6761896 77.1954023,20.8539683 L76.7241379,22.7079365 C76.6819921,22.9026465 76.6513411,23.0772479 76.6321839,23.231746 C76.6130267,23.3862442 76.6034483,23.5375654 76.6034483,23.6857143 C76.6034483,24.0666686 76.7308416,24.3809511 76.9856322,24.6285714 C77.2404227,24.8761917 77.5976989,25 78.0574713,25 C78.3563233,25 78.6187728,24.9566142 78.8448276,24.8698413 C79.0708824,24.7830683 79.3735613,24.6571437 79.7528736,24.4920635 L79.8793103,23.9206349 Z M80,16.168254 C80,15.8465592 79.8898478,15.5714297 79.6695402,15.3428571 C79.4492326,15.1142846 79.1839096,15 78.8735632,15 C78.5632168,15 78.296936,15.1142846 78.0747126,15.3428571 C77.8524893,15.5714297 77.7413793,15.8465592 77.7413793,16.168254 C77.7413793,16.4899487 77.8524893,16.76402 78.0747126,16.9904762 C78.296936,17.2169323 78.5632168,17.3301587 78.8735632,17.3301587 C79.1839096,17.3301587 79.4492326,17.2169323 79.6695402,16.9904762 C79.8898478,16.76402 80,16.4899487 80,16.168254 Z" id="ic/info"></path>
        </g>
    </g>
</svg>