<?xml version="1.0" encoding="UTF-8"?>
<svg width="129px" className="text-black" height="16px" viewBox="0 0 129 16" version="1.1" xmlns="http://www.w3.org/2000/svg" xmlns:xlink="http://www.w3.org/1999/xlink">
    <!-- Generator: Sketch 53.2 (72643) - https://sketchapp.com -->
    <title>Logo</title>
    <desc>Created with Sketch.</desc>
    <g id="1.0.-Design" stroke="none" strokeWidth="1" fill="#000000" fillRule="evenodd">
        <g id="HP" transform="translate(-100.000000, -101.000000)" fill="#FFFFFF">
            <g id="Header">
                <g id="Top" transform="translate(100.000000, 83.000000)">
                    <g id="Logo" transform="translate(0.000000, 18.000000)">
                        <g id="Group">
                            <g>
                                <path d="M32.5317763,0.387783591 L28.7647357,0.387783591 C28.1079183,0.387783591 27.818146,0.572442444 27.5863281,1.126419 L26.0795119,4.69033487 L8.88635219,4.69033487 L10.3931684,1.126419 C10.6249863,0.572442444 10.4704411,0.387783591 9.83294188,0.387783591 L6.06590128,0.387783591 C5.4284021,0.387783591 5.11931159,0.572442444 4.8874937,1.126419 L0.135227099,12.390609 C-0.0965907847,12.9445856 0.0579544708,13.1292445 0.69545365,13.1292445 L4.46249425,13.1292445 C5.09999343,13.1292445 5.40908394,12.9445856 5.64090182,12.390609 L7.14771807,8.82669317 L24.3408777,8.82669317 L22.8340615,12.390609 C22.6022436,12.9445856 22.7374707,13.1292445 23.394288,13.1292445 L27.1613286,13.1292445 C27.7988278,13.1292445 28.069282,12.9445856 28.3204181,12.390609 L33.0726847,1.126419 C33.2851844,0.572442444 33.1499573,0.387783591 32.5317763,0.387783591 Z" id="Path"></path>
                                <path d="M121.182798,0.129261197 L104.337366,0.129261197 C100.357825,0.129261197 97.3635109,1.97584973 96.0885126,4.94885726 L94.5623782,8.56817078 C93.306698,11.5411783 94.7555598,13.3877668 98.7157819,13.3877668 L115.561215,13.3877668 C118.671438,13.3877668 121.086208,12.3167455 122.728251,10.3778275 C123.172569,9.87924864 123.15325,9.5468627 122.593024,9.43606739 L118.922574,8.95595437 C118.381666,8.86362495 117.763485,8.9190226 117.261213,9.39913562 C116.507804,10.1008393 115.773714,9.97157806 114.363489,9.97157806 L102.231686,9.97157806 C100.396462,9.97157806 99.7589624,9.25140854 100.357825,7.82953537 L101.285097,5.6505609 C101.88396,4.22868773 103.13964,3.50851821 104.955547,3.50851821 L117.087349,3.50851821 C118.497575,3.50851821 119.289619,3.36079113 119.502119,4.08096065 C119.637346,4.54260778 120.100982,4.63493721 120.796435,4.5241419 L124.891885,4.04402888 C125.529384,3.95169945 125.838474,3.61931352 125.819156,3.10226873 C125.799838,1.20028254 124.293022,0.129261197 121.182798,0.129261197 Z" id="Path"></path>
                                <path d="M57.3942442,0.129261197 L43.7942618,0.129261197 L43.7942618,0.129261197 C39.8147214,0.129261197 35.5067724,1.97584973 34.2510922,4.94885726 L32.7249578,8.56817078 C31.4692776,11.5411783 34.2124559,13.3877668 38.1919963,13.3877668 L44.682897,13.3877668 C45.7647138,13.3877668 46.7499398,13.9971411 47.1749392,14.9573671 L47.2135755,15.0496965 C47.3681208,15.3820825 47.7158476,15.6036731 48.1022108,15.6036731 L52.3715234,15.6036731 C52.7578866,15.6036731 53.0090226,15.2343554 52.8737955,14.9019694 L52.5260687,14.0894705 C51.4828882,11.596576 48.9328915,9.95311218 46.1317588,9.95311218 L40.3942661,9.95311218 C38.6363139,9.95311218 37.9215421,9.25140854 38.5010868,7.84800125 L39.4476765,5.59516325 C40.0465393,4.19175596 41.3408558,3.49005232 43.1181263,3.49005232 L49.1453912,3.49005232 L55.1726562,3.49005232 C56.9306085,3.49005232 57.6453803,4.19175596 57.0658356,5.59516325 L56.1192459,7.84800125 C55.520383,9.25140854 54.2260665,9.95311218 52.4487961,9.95311218 L52.2556145,9.95311218 C53.0862953,10.6548158 53.7817489,11.5042465 54.3033391,12.4644726 C54.4965207,12.8153244 54.902202,12.9999833 55.2885651,12.8891879 C58.0124253,12.1690184 60.4271949,10.6363499 61.3158301,8.53123901 L62.8419645,4.91192549 C64.1169629,1.97584973 61.3737846,0.129261197 57.3942442,0.129261197 Z" id="Path"></path>
                                <path d="M91.0851099,6.51845751 L91.1237463,6.44459397 C92.4180628,5.83521976 93.1714709,5.00425492 93.6930611,3.78550649 C94.6010145,1.60653202 93.4419251,0.387783591 90.6407923,0.387783591 L68.4828663,0.387783591 C67.8453671,0.387783591 67.5362766,0.572442444 67.3044588,1.126419 L62.5521921,12.390609 C62.3203743,12.9445856 62.4749195,13.1292445 63.1124187,13.1292445 L85.3669355,13.1292445 C88.2260227,13.1292445 90.8532921,11.8735642 91.8191999,9.60226036 C92.4760172,8.01419422 92.1669267,6.98010464 91.0851099,6.51845751 Z M71.9408164,3.15766639 L87.3373875,3.15766639 C87.9362504,3.15766639 88.2260227,3.61931352 87.9748867,4.19175596 C87.7237506,4.76419841 87.0476151,5.22584554 86.4487523,5.22584554 L71.0521812,5.22584554 L71.9408164,3.15766639 Z M84.6521637,10.3593617 L68.9078658,10.3593617 L69.8544555,8.12498953 L85.5987534,8.12498953 C86.2362525,8.12498953 86.5453431,8.62356844 86.294207,9.23294265 C86.043071,9.84231687 85.2896629,10.3593617 84.6521637,10.3593617 Z" id="Shape" ></path>
                            </g>
                            <g transform="translate(124.602112, 9.971578)" >
                                <path d="M2.47272409,1.49573671 L2.47272409,1.49573671 C2.47272409,1.34800963 2.43408777,1.23721432 2.33749699,1.16335077 C2.2409062,1.07102135 2.06704279,1.01562369 1.85454307,1.01562369 L1.13977126,1.01562369 L1.13977126,2.45596275 L1.56477071,2.45596275 L1.56477071,2.0127815 L1.75795228,2.0127815 L2.06704279,2.45596275 L2.54999672,2.45596275 L2.18295173,1.95738384 C2.35681515,1.86505442 2.47272409,1.71732733 2.47272409,1.49573671 Z M2.04772463,1.51420259 C2.04772463,1.62499791 1.97045201,1.68039556 1.81590675,1.68039556 L1.54545255,1.68039556 L1.54545255,1.32954374 L1.81590675,1.32954374 C1.97045201,1.34800963 2.04772463,1.40340728 2.04772463,1.51420259 L2.04772463,1.51420259 Z" id="Shape"></path>
                                <path d="M1.83522491,0.0184658853 C0.849998905,0.0184658853 0.0579544708,0.775567183 0.0579544708,1.71732733 C0.0579544708,2.65908748 0.849998905,3.41618878 1.83522491,3.41618878 C2.82045091,3.41618878 3.61249535,2.65908748 3.61249535,1.71732733 C3.61249535,0.775567183 2.82045091,0.0184658853 1.83522491,0.0184658853 Z M1.83522491,3.02840519 C1.08181679,3.02840519 0.463635766,2.43749686 0.463635766,1.71732733 C0.463635766,0.997157806 1.08181679,0.406249477 1.83522491,0.406249477 C2.58863303,0.406249477 3.20681405,0.997157806 3.20681405,1.71732733 C3.20681405,2.43749686 2.58863303,3.02840519 1.83522491,3.02840519 Z" id="Shape"></path>
                            </g>
                        </g>
                    </g>
                </g>
            </g>
        </g>
    </g>
</svg>