<?xml version="1.0" encoding="UTF-8"?>
<!DOCTYPE svg PUBLIC "-//W3C//DTD SVG 1.1//EN" "http://www.w3.org/Graphics/SVG/1.1/DTD/svg11.dtd">
<svg xmlns="http://www.w3.org/2000/svg" version="1.1" width="533px" height="142px" style="shape-rendering:geometricPrecision; text-rendering:geometricPrecision; image-rendering:optimizeQuality; filerule:evenodd; clip-rule:evenodd" xmlns:xlink="http://www.w3.org/1999/xlink">
<g><path style="opacity:0.736" fill="#fefffe" d="M 501.5,9.5 C 515.585,10.3375 520.085,17.3375 515,30.5C 506.667,37.4224 499.333,36.4224 493,27.5C 490.819,18.8683 493.652,12.8683 501.5,9.5 Z M 503.5,12.5 C 513.351,14.6989 516.018,20.1989 511.5,29C 503.259,33.708 497.926,31.5413 495.5,22.5C 496.368,17.6408 499.035,14.3074 503.5,12.5 Z M 503.5,18.5 C 506.957,18.6672 507.29,19.6672 504.5,21.5C 503.614,20.675 503.281,19.675 503.5,18.5 Z"/></g>
<g><path style="opacity:0.611" fill="#fefffe" d="M 501.5,15.5 C 504.157,15.162 506.49,15.8287 508.5,17.5C 508.213,21.1044 508.546,24.771 509.5,28.5C 508.5,28.5 507.5,28.5 506.5,28.5C 505.052,22.031 504.052,22.031 503.5,28.5C 502.5,28.5 501.5,28.5 500.5,28.5C 500.231,24.0685 500.564,19.7352 501.5,15.5 Z M 503.5,18.5 C 503.281,19.675 503.614,20.675 504.5,21.5C 507.29,19.6672 506.957,18.6672 503.5,18.5 Z"/></g>
<g><path style="opacity:0.949" fill="#fefffe" d="M 33.5,33.5 C 57.8356,33.3334 82.1689,33.5 106.5,34C 116.415,36.9161 122.582,43.4161 125,53.5C 125.667,73.1667 125.667,92.8333 125,112.5C 122.609,122.558 116.443,129.058 106.5,132C 82.5,132.667 58.5,132.667 34.5,132C 24.7779,129.945 18.6113,124.112 16,114.5C 15.3333,93.1667 15.3333,71.8333 16,50.5C 19.0839,41.915 24.9172,36.2483 33.5,33.5 Z M 53.5,41.5 C 57.0982,43.3259 59.2649,46.3259 60,50.5C 63.7221,55.8533 68.5554,57.3533 74.5,55C 77.5,51.3333 80.5,47.6667 83.5,44C 90.4716,43.3041 93.9716,46.4708 94,53.5C 89.2175,60.6169 84.0508,67.4503 78.5,74C 76.8333,74.6667 75.1667,74.6667 73.5,74C 67.0396,65.8708 60.2062,58.0374 53,50.5C 50.9157,47.267 51.0824,44.267 53.5,41.5 Z M 40.5,54.5 C 43.3198,54.2475 45.9865,54.7475 48.5,56C 54,62.1667 59.5,68.3333 65,74.5C 67.3695,76.8704 68.8695,79.7038 69.5,83C 69.3749,84.6268 68.8749,86.1268 68,87.5C 61.1667,95 54.3333,102.5 47.5,110C 44.634,111.457 41.634,111.79 38.5,111C 37.5494,110.282 37.3828,109.449 38,108.5C 41.4365,105.8 45.1032,103.466 49,101.5C 53.1399,95.7133 53.4732,89.7133 50,83.5C 45.2993,79.1342 40.966,74.4675 37,69.5C 35.5593,63.7723 36.7259,58.7723 40.5,54.5 Z M 98.5,58.5 C 100.912,58.244 102.579,59.244 103.5,61.5C 100.902,64.0547 98.4018,66.7214 96,69.5C 95.3333,73.1667 95.3333,76.8333 96,80.5C 99.6923,84.8522 102.526,89.6855 104.5,95C 104.35,99.4932 102.35,102.66 98.5,104.5C 96.9707,104.471 95.804,103.804 95,102.5C 92.3847,98.2171 89.3847,94.2171 86,90.5C 81.852,86.0974 81.5187,81.4308 85,76.5C 89.7167,70.623 94.2167,64.623 98.5,58.5 Z M 75.5,90.5 C 77.7157,91.2026 79.549,92.5359 81,94.5C 83.9504,99.1185 87.2838,103.452 91,107.5C 92.6863,110.088 92.8529,112.755 91.5,115.5C 90.3493,116.731 89.1827,116.731 88,115.5C 87.5642,108.733 84.0642,106.233 77.5,108C 71.8126,112.689 66.4793,117.689 61.5,123C 56.2982,125.266 52.2982,123.933 49.5,119C 50.1905,117.933 50.6905,116.766 51,115.5C 59.4237,107.245 67.5904,98.9114 75.5,90.5 Z"/></g>
<g><path style="opacity:0.962" fill="#fefffe" d="M 140.5,33.5 C 146.167,33.5 151.833,33.5 157.5,33.5C 157.5,53.8333 157.5,74.1667 157.5,94.5C 174.5,94.5 191.5,94.5 208.5,94.5C 208.5,97.1667 208.5,99.8333 208.5,102.5C 185.833,102.5 163.167,102.5 140.5,102.5C 140.5,79.5 140.5,56.5 140.5,33.5 Z"/></g>
<g><path style="opacity:0.929" fill="#fefffe" d="M 260.5,33.5 C 266.758,33.1903 272.924,33.5236 279,34.5C 291.5,56.8333 304,79.1667 316.5,101.5C 310.528,102.664 304.528,102.83 298.5,102C 295.833,97.3333 293.167,92.6667 290.5,88C 276.155,87.1672 261.822,87.3339 247.5,88.5C 244.959,93.0825 242.293,97.5825 239.5,102C 234.177,102.499 228.844,102.666 223.5,102.5C 235.559,79.3837 247.892,56.3837 260.5,33.5 Z M 268.5,49.5 C 274.392,58.9393 280.059,68.6059 285.5,78.5C 274.515,79.6658 263.515,79.8324 252.5,79C 258.494,69.5119 263.827,59.6786 268.5,49.5 Z"/></g>
<g><path style="opacity:0.932" fill="#fefffe" d="M 331.5,33.5 C 336.844,33.334 342.177,33.5006 347.5,34C 363.366,50.1983 378.866,66.6983 394,83.5C 394.5,66.8367 394.667,50.17 394.5,33.5C 399.833,33.5 405.167,33.5 410.5,33.5C 410.5,56.5 410.5,79.5 410.5,102.5C 404.824,102.666 399.157,102.499 393.5,102C 377.967,86.135 362.8,69.9683 348,53.5C 347.5,69.8299 347.333,86.1633 347.5,102.5C 342.167,102.5 336.833,102.5 331.5,102.5C 331.5,79.5 331.5,56.5 331.5,33.5 Z"/></g>
<g><path style="opacity:0.935" fill="#fefffe" d="M 424.5,33.5 C 439.837,33.3334 455.17,33.5001 470.5,34C 496.205,36.7048 507.371,50.8714 504,76.5C 498.524,92.8492 487.024,101.349 469.5,102C 454.504,102.5 439.504,102.667 424.5,102.5C 424.5,79.5 424.5,56.5 424.5,33.5 Z M 441.5,41.5 C 449.84,41.3336 458.173,41.5003 466.5,42C 480.765,44.263 487.765,52.5963 487.5,67C 488.346,81.4832 481.68,90.1499 467.5,93C 458.87,94.1449 450.203,94.6449 441.5,94.5C 441.5,76.8333 441.5,59.1667 441.5,41.5 Z"/></g>
<g><path style="opacity:0.251" fill="#fefffe" d="M 140.5,111.5 C 261.666,110.334 382.999,110.167 504.5,111C 383.167,111.5 261.834,111.667 140.5,111.5 Z"/></g>
<g><path style="opacity:0.803" fill="#fefffe" d="M 226.5,118.5 C 227.5,118.5 228.5,118.5 229.5,118.5C 229.5,123.167 229.5,127.833 229.5,132.5C 228.5,132.5 227.5,132.5 226.5,132.5C 226.5,127.833 226.5,123.167 226.5,118.5 Z"/></g>
<g><path style="opacity:0.745" fill="#fefffe" d="M 287.5,118.5 C 288.833,118.5 290.167,118.5 291.5,118.5C 291.5,123.167 291.5,127.833 291.5,132.5C 282.822,134.813 279.488,131.813 281.5,123.5C 283.173,121.914 285.173,121.247 287.5,121.5C 287.5,120.5 287.5,119.5 287.5,118.5 Z M 284.5,125.5 C 285.5,125.5 286.5,125.5 287.5,125.5C 287.5,126.833 287.5,128.167 287.5,129.5C 284.046,129.733 283.046,128.4 284.5,125.5 Z"/></g>
<g><path style="opacity:0.685" fill="#fefffe" d="M 301.5,118.5 C 302.833,118.5 304.167,118.5 305.5,118.5C 305.5,119.5 305.5,120.5 305.5,121.5C 307.722,121.178 309.556,121.845 311,123.5C 311.498,126.482 311.665,129.482 311.5,132.5C 310.167,132.5 308.833,132.5 307.5,132.5C 306.833,123.167 306.167,123.167 305.5,132.5C 304.167,132.5 302.833,132.5 301.5,132.5C 301.5,127.833 301.5,123.167 301.5,118.5 Z"/></g>
<g><path style="opacity:0.664" fill="#fefffe" d="M 341.5,118.5 C 342.833,118.5 344.167,118.5 345.5,118.5C 345.5,123.167 345.5,127.833 345.5,132.5C 344.167,132.5 342.833,132.5 341.5,132.5C 341.5,127.833 341.5,123.167 341.5,118.5 Z"/></g>
<g><path style="opacity:0.753" fill="#fefffe" d="M 402.5,118.5 C 403.5,118.5 404.5,118.5 405.5,118.5C 405.786,120.277 406.453,121.944 407.5,123.5C 405.936,126.306 405.27,129.306 405.5,132.5C 404.5,132.5 403.5,132.5 402.5,132.5C 401.806,127.778 401.806,123.112 402.5,118.5 Z"/></g>
<g><path style="opacity:0.706" fill="#fefffe" d="M 140.5,121.5 C 141.833,121.5 143.167,121.5 144.5,121.5C 144.312,123.103 144.812,124.437 146,125.5C 147.667,120.167 149.333,120.167 151,125.5C 151.756,122.208 153.589,121.208 156.5,122.5C 155.039,125.382 153.873,128.382 153,131.5C 151.989,132.337 150.822,132.67 149.5,132.5C 148.833,128.5 148.167,128.5 147.5,132.5C 146.178,132.67 145.011,132.337 144,131.5C 142.54,128.252 141.374,124.919 140.5,121.5 Z"/></g>
<g><path style="opacity:0.718" fill="#fefffe" d="M 164.5,121.5 C 167.388,121.22 168.888,122.553 169,125.5C 169.45,122.894 170.95,121.561 173.5,121.5C 174.168,126.367 175.168,126.534 176.5,122C 177.448,121.517 178.448,121.351 179.5,121.5C 178.699,125.235 177.699,128.901 176.5,132.5C 173.612,132.78 172.112,131.447 172,128.5C 171.5,129.5 171,130.5 170.5,131.5C 169.5,132.833 168.5,132.833 167.5,131.5C 166.091,128.273 165.091,124.94 164.5,121.5 Z"/></g>
<g><path style="opacity:0.705" fill="#fefffe" d="M 187.5,121.5 C 188.833,121.5 190.167,121.5 191.5,121.5C 191.312,123.103 191.812,124.437 193,125.5C 194.667,120.167 196.333,120.167 198,125.5C 198.756,122.208 200.589,121.208 203.5,122.5C 202.039,125.382 200.873,128.382 200,131.5C 198.989,132.337 197.822,132.67 196.5,132.5C 195.833,128.5 195.167,128.5 194.5,132.5C 193.178,132.67 192.011,132.337 191,131.5C 189.54,128.252 188.374,124.919 187.5,121.5 Z"/></g>
<g><path style="opacity:0.729" fill="#fefffe" d="M 242.5,121.5 C 245.167,121.5 247.833,121.5 250.5,121.5C 250.5,125.167 250.5,128.833 250.5,132.5C 247.482,132.665 244.482,132.498 241.5,132C 238.721,128.181 239.054,124.681 242.5,121.5 Z M 243.5,125.5 C 247.905,125.7 248.405,127.033 245,129.5C 242.971,128.486 242.471,127.153 243.5,125.5 Z"/></g>
<g><path style="opacity:0.688" fill="#fefffe" d="M 260.5,121.5 C 269.339,120.009 272.672,123.675 270.5,132.5C 269.5,132.5 268.5,132.5 267.5,132.5C 267.838,129.843 267.171,127.51 265.5,125.5C 264.526,127.743 264.192,130.076 264.5,132.5C 263.167,132.5 261.833,132.5 260.5,132.5C 260.5,128.833 260.5,125.167 260.5,121.5 Z"/></g>
<g><path style="opacity:0.724" fill="#fefffe" d="M 324.5,121.5 C 328.747,121.118 331.414,122.951 332.5,127C 332.095,127.945 331.428,128.612 330.5,129C 331.833,130 331.833,131 330.5,132C 323,133.833 320.167,131 322,123.5C 322.995,122.934 323.828,122.267 324.5,121.5 Z"/></g>
<g><path style="opacity:0.671" fill="#fefffe" d="M 355.5,121.5 C 360.277,121.858 364.944,122.024 369.5,122C 370,122.5 370.5,123 371,123.5C 371.498,126.482 371.665,129.482 371.5,132.5C 370.167,132.5 368.833,132.5 367.5,132.5C 366.833,123.167 366.167,123.167 365.5,132.5C 364.167,132.5 362.833,132.5 361.5,132.5C 360.833,123.167 360.167,123.167 359.5,132.5C 358.167,132.5 356.833,132.5 355.5,132.5C 355.5,128.833 355.5,125.167 355.5,121.5 Z"/></g>
<g><path style="opacity:0.724" fill="#fefffe" d="M 384.5,121.5 C 388.747,121.118 391.414,122.951 392.5,127C 392.095,127.945 391.428,128.612 390.5,129C 391.833,130 391.833,131 390.5,132C 383,133.833 380.167,131 382,123.5C 382.995,122.934 383.828,122.267 384.5,121.5 Z"/></g>
<g><path style="opacity:0.716" fill="#fefffe" d="M 418.5,121.5 C 422.956,121.393 423.956,122.893 421.5,126C 423.698,127.67 424.032,129.67 422.5,132C 419.947,132.851 417.614,132.518 415.5,131C 417.712,129.372 418.046,127.372 416.5,125C 416.862,123.566 417.528,122.399 418.5,121.5 Z"/></g>
<g><path style="opacity:0.706" fill="#fefffe" d="M 450.5,121.5 C 453.272,121.22 455.772,121.887 458,123.5C 457.537,126.146 456.037,126.813 453.5,125.5C 449.813,126.519 449.646,127.852 453,129.5C 454.923,128.198 456.757,128.365 458.5,130C 455.136,133.1 451.636,133.267 448,130.5C 446.927,126.9 447.76,123.9 450.5,121.5 Z"/></g>
<g><path style="opacity:0.744" fill="#fefffe" d="M 471.5,121.5 C 476.028,121.091 478.694,123.091 479.5,127.5C 478.079,132.077 475.079,133.577 470.5,132C 466.442,128.027 466.776,124.527 471.5,121.5 Z M 471.5,125.5 C 472.833,125.5 474.167,125.5 475.5,125.5C 475.778,127.346 475.111,128.68 473.5,129.5C 471.889,128.68 471.222,127.346 471.5,125.5 Z"/></g>
<g><path style="opacity:0.786" fill="#fefffe" d="M 489.5,121.5 C 494.293,121.91 498.96,122.243 503.5,122.5C 504.487,125.768 504.82,129.102 504.5,132.5C 503.5,132.5 502.5,132.5 501.5,132.5C 501.5,130.167 501.5,127.833 501.5,125.5C 500.5,125.5 499.5,125.5 498.5,125.5C 498.5,127.833 498.5,130.167 498.5,132.5C 497.5,132.5 496.5,132.5 495.5,132.5C 495.662,130.473 495.495,128.473 495,126.5C 494.586,126.043 494.086,125.709 493.5,125.5C 492.526,127.743 492.192,130.076 492.5,132.5C 491.5,132.5 490.5,132.5 489.5,132.5C 489.5,128.833 489.5,125.167 489.5,121.5 Z"/></g>
<g><path style="opacity:0.625" fill="#fefffe" d="M 212.5,129.5 C 213.833,129.5 215.167,129.5 216.5,129.5C 216.5,130.5 216.5,131.5 216.5,132.5C 215.167,132.5 213.833,132.5 212.5,132.5C 212.5,131.5 212.5,130.5 212.5,129.5 Z"/></g>
<g><path style="opacity:0.62" fill="#fefffe" d="M 433.5,129.5 C 434.833,129.5 436.167,129.5 437.5,129.5C 437.5,130.5 437.5,131.5 437.5,132.5C 436.167,132.5 434.833,132.5 433.5,132.5C 433.5,131.5 433.5,130.5 433.5,129.5 Z"/></g>
</svg>
