<?xml version="1.0" encoding="UTF-8"?>
<svg width="22px" height="22px" viewBox="0 0 22 22" version="1.1" xmlns="http://www.w3.org/2000/svg" xmlns:xlink="http://www.w3.org/1999/xlink">
    <!-- Generator: Sketch 53.2 (72643) - https://sketchapp.com -->
    <title>Art4web logo</title>
    <desc>Created with Sketch.</desc>
    <g id="Symbols" stroke="none" stroke-width="1" fill="none" fill-rule="evenodd">
        <g id="Footer" transform="translate(-1363.000000, -466.000000)" fill="#FFFFFF">
            <g id="links" transform="translate(214.000000, 390.000000)">
                <g id="Signature" transform="translate(966.000000, 76.000000)">
                    <path d="M184.654642,18.6777578 C185.568853,18.6778587 186.310092,19.4185927 186.310092,20.3327028 C186.310092,21.2469138 185.568853,21.9881523 184.654642,21.9882532 C183.740633,21.9882532 183,21.2469138 183,20.3327028 C183,19.4185927 183.740633,18.6777578 184.654642,18.6777578 Z M204.144856,0.84266055 C204.665489,1.36309174 204.987113,2.08202752 204.987214,2.87655046 C204.987214,4.19392661 204.101865,5.30442202 202.893682,5.64542202 C199.862627,6.50130275 200.241773,7.42166972 200.617792,10.9814312 C200.645241,11.2411927 200.659269,11.5049908 200.65937,11.7721193 C200.65937,15.8836972 197.326168,19.2168991 193.215296,19.2166972 C191.159608,19.2168991 189.298388,18.3835229 187.951544,17.0362752 C186.604195,15.6894312 185.771021,13.828211 185.771021,11.7725229 C185.771021,7.66094495 189.104122,4.32794495 193.215498,4.32794495 C193.482728,4.32794495 193.746627,4.34197248 194.00659,4.36962385 C197.565544,4.74533945 198.486113,5.12458716 199.341691,2.09353211 C199.682893,0.885247706 200.793489,5.68434189e-14 202.110764,5.68434189e-14 C202.905085,5.68434189e-14 203.624122,0.321926606 204.144856,0.84266055 Z M195.068948,13.0858624 L195.068948,12.2121193 L194.43781,12.2121193 L194.43781,9.16088073 L193.300672,9.16088073 L191.296452,12.2121193 L191.296452,13.0858624 L193.439333,13.0858624 L193.439333,14.0706147 L194.43781,14.0706147 L194.43781,13.0858624 L195.068948,13.0858624 Z M192.336689,12.2120991 L193.425386,10.5200165 L193.439313,10.5200165 L193.439313,12.2120991 L192.336689,12.2120991 Z" id="Art4web-logo"></path>
                </g>
            </g>
        </g>
    </g>
</svg>