<svg xmlns="http://www.w3.org/2000/svg" viewBox="0 0 642 516" width="642" height="516" preserveAspectRatio="xMidYMid meet" style="width: 100%; height: 100%; transform: translate3d(0px, 0px, 0px);"><defs><clipPath id="__lottie_element_2"><rect width="642" height="516" x="0" y="0"></rect></clipPath><mask id="__lottie_element_3" mask-type="luminance"><g style="display: block;" transform="matrix(0.28894999623298645,0,0,1,779.6265869140625,355.9107360839844)" opacity="0.32717429131927533"><g opacity="1" transform="matrix(4.504449844360352,0,0,1,-1047.1600341796875,-71.125)"><path fill="url(#__lottie_element_6)" fill-opacity="1" d=" M120.5739974975586,-290.5350036621094 C120.5739974975586,-290.5350036621094 120.5739974975586,290.5350036621094 120.5739974975586,290.5350036621094 C120.5739974975586,290.5350036621094 -120.5739974975586,290.5350036621094 -120.5739974975586,290.5350036621094 C-120.5739974975586,290.5350036621094 -120.5739974975586,-290.5350036621094 -120.5739974975586,-290.5350036621094 C-120.5739974975586,-290.5350036621094 120.5739974975586,-290.5350036621094 120.5739974975586,-290.5350036621094z"></path></g></g></mask><linearGradient id="__lottie_element_6" spreadMethod="pad" gradientUnits="userSpaceOnUse" x1="-122.1780014038086" y1="0" x2="100" y2="0"><stop offset="0%" stop-color="rgb(0,0,0)"></stop><stop offset="25%" stop-color="rgb(128,128,128)"></stop><stop offset="50%" stop-color="rgb(255,255,255)"></stop><stop offset="75%" stop-color="rgb(128,128,128)"></stop><stop offset="100%" stop-color="rgb(0,0,0)"></stop></linearGradient></defs><g clip-path="url(#__lottie_element_2)"><g mask="url(#__lottie_element_3)" style="display: block;"><g transform="matrix(1,0,0,1,-0.5,2)" opacity="1"><g opacity="1" transform="matrix(1,0,0,1,321,383.5)"><path stroke-linecap="butt" strokeLinejoin="miter" fill-opacity="0" stroke-miterlimit="4" stroke="rgb(255,255,255)" stroke-opacity="1" strokeWidth="2" d=" M320,-127.5 C320,13.333000183105469 176.7310028076172,127.5 0,127.5 C-176.7310028076172,127.5 -320,13.333000183105469 -320,-127.5"></path></g><g opacity="1" transform="matrix(1,0,0,1,321,163.5)"><path stroke-linecap="butt" strokeLinejoin="miter" fill-opacity="0" stroke-miterlimit="4" stroke="rgb(255,255,255)" stroke-opacity="1" strokeWidth="2" d=" M-320,92.5 C-320,-9.67199993133545 -176.7310028076172,-92.5 0,-92.5 C176.7310028076172,-92.5 320,-9.67199993133545 320,92.5"></path></g><g opacity="1" transform="matrix(1,0,0,1,321,202.5)"><path stroke-linecap="butt" strokeLinejoin="miter" fill-opacity="0" stroke-miterlimit="4" stroke="rgb(255,255,255)" stroke-opacity="1" strokeWidth="2" d=" M-320,53.5 C-320,-5.593999862670898 -176.7310028076172,-53.5 0,-53.5 C176.7310028076172,-53.5 320,-5.593999862670898 320,53.5"></path></g><g opacity="1" transform="matrix(1,0,0,1,321,280)"><path stroke-linecap="butt" strokeLinejoin="miter" fill-opacity="0" stroke-miterlimit="4" stroke="rgb(255,255,255)" stroke-opacity="1" strokeWidth="2" d=" M320,-24 C320,2.509999990463257 176.7310028076172,24 0,24 C-176.7310028076172,24 -320,2.509999990463257 -320,-24"></path></g><g opacity="1" transform="matrix(1,0,0,1,321,232)"><path stroke-linecap="butt" strokeLinejoin="miter" fill-opacity="0" stroke-miterlimit="4" stroke="rgb(255,255,255)" stroke-opacity="1" strokeWidth="2" d=" M-320,24 C-320,-2.509999990463257 -176.7310028076172,-24 0,-24 C176.7310028076172,-24 320,-2.509999990463257 320,24"></path></g><g opacity="1" transform="matrix(1,0,0,1,321,309.5)"><path stroke-linecap="butt" strokeLinejoin="miter" fill-opacity="0" stroke-miterlimit="4" stroke="rgb(255,255,255)" stroke-opacity="1" strokeWidth="2" d=" M320,-53.5 C320,5.593999862670898 176.7310028076172,53.5 0,53.5 C-176.7310028076172,53.5 -320,5.593999862670898 -320,-53.5"></path></g><g opacity="1" transform="matrix(1,0,0,1,321,348.5)"><path stroke-linecap="butt" strokeLinejoin="miter" fill-opacity="0" stroke-miterlimit="4" stroke="rgb(255,255,255)" stroke-opacity="1" strokeWidth="2" d=" M320,-92.5 C320,9.67199993133545 176.7310028076172,92.5 0,92.5 C-176.7310028076172,92.5 -320,9.67199993133545 -320,-92.5"></path></g><g opacity="1" transform="matrix(1,0,0,1,321,128.5)"><path stroke-linecap="butt" strokeLinejoin="miter" fill-opacity="0" stroke-miterlimit="4" stroke="rgb(255,255,255)" stroke-opacity="1" strokeWidth="2" d=" M-320,127.5 C-320,-13.333000183105469 -176.7310028076172,-127.5 0,-127.5 C176.7310028076172,-127.5 320,-13.333000183105469 320,127.5"></path></g></g></g></g></svg>