<?xml version="1.0" encoding="UTF-8"?>
<svg id="Capa_2" data-name="Capa 2" xmlns="http://www.w3.org/2000/svg" viewBox="0 0 2000 2000">
  <defs>
    <style>
      .cls-1 {
        fill: #fff;
      }
    </style>
  </defs>
  <g id="Capa_1-2" data-name="Capa 1">
    <g>
      <path class="cls-1" d="m1734.69,2000H265.31C119.01,2000,0,1880.98,0,1734.69V265.31C0,119.02,119.01,0,265.31,0h1469.39c146.29,0,265.31,119.02,265.31,265.31v1469.39c0,146.29-119.01,265.31-265.31,265.31ZM265.31,40.82c-123.78,0-224.49,100.71-224.49,224.49v1469.39c0,123.78,100.71,224.49,224.49,224.49h1469.39c123.78,0,224.49-100.71,224.49-224.49V265.31c0-123.78-100.71-224.49-224.49-224.49H265.31Z"/>
      <path class="cls-1" d="m516.61,1273.54c-101.95,0-215.55-17.1-315.26-78.94-8.59-5.2-14.6-14.06-16.33-24.19-1.75-10.25,1.04-20.74,7.65-28.78l1.89-2.29,28.91-19.53c16.15-10.91,25.8-29.05,25.8-48.55v-259.22c0-22.08,7.73-43.59,21.79-60.57l39.77-47.97c3.06-3.62,5.57-7.67,7.58-12.17,129.04-285.05,414.77-465.7,727.36-460.71,425.6,7.1,771.12,359.28,770.22,785.07-.07,32.3-2.1,64.42-6.01,95.64l.03.04c17.29,17.29,27.97,46.29,26.59,72.16-1.04,19.35-8.76,35.77-21.74,46.23-32.31,26.04-83.75,30.46-121.32,33.69l-9.58.84v-.07s-1.12.08-1.12.08c-42.9,1.59-85.04-.25-125.16-5.48-57.52-7.54-114.18-21.39-168.99-34.79-40.04-9.79-81.46-19.91-122.39-27.32-146.44-26.65-271.26.7-403.4,29.65-62.99,13.81-128.12,28.08-197.54,36.85-43.73,5.51-94.62,10.34-148.76,10.34Zm-286.28-109.1c106.9,63.26,243.83,81.74,429.93,58.26,67.59-8.53,131.82-22.61,193.92-36.22,136.24-29.86,264.94-58.07,419.44-29.94,42.13,7.63,84.14,17.9,124.78,27.83,53.74,13.13,109.31,26.72,164.6,33.96,37.85,4.94,77.67,6.69,118.35,5.17v.04l8.71-.77c32.33-2.78,76.59-6.58,99.21-24.81,5.17-4.18,6.35-12.21,6.58-16.63.77-14.3-5.55-31.97-14.69-41.11l-14.35-14.35,1.41-10.06c4.54-32.55,6.88-66.27,6.96-100.22.85-403.61-326.66-737.44-730.08-744.17-296.55-4.75-567.17,166.53-689.46,436.65-3.53,7.9-8.08,15.2-13.5,21.61l-39.64,47.82c-8,9.66-12.4,21.93-12.4,34.53v259.22c0,33.07-16.36,63.87-43.77,82.37l-16,10.8Zm-7.65-4.63s.06.04.09.06c-.02-.02-.06-.04-.09-.06Z"/>
      <path class="cls-1" d="m1160.55,724.77h133.51v256.17c-34.28,25.86-73.97,45.71-119.07,59.53-45.1,13.83-90.51,20.75-136.21,20.75-65.55,0-124.48-13.98-176.79-41.95-52.32-27.96-93.35-66.75-123.13-116.36-29.76-49.61-44.64-105.67-44.64-168.22s14.88-118.61,44.64-168.22c29.77-49.61,71.1-88.4,124.03-116.36,52.91-27.96,112.44-41.95,178.61-41.95,55.32,0,105.53,9.33,150.63,27.96,45.1,18.65,82.99,45.71,113.66,81.18l-93.81,86.59c-45.1-47.5-99.53-71.26-163.26-71.26-40.3,0-76.08,8.43-107.34,25.25-31.27,16.84-55.63,40.59-73.06,71.26-17.45,30.67-26.16,65.85-26.16,105.54s8.71,73.97,26.16,104.63c17.43,30.67,41.63,54.57,72.61,71.71,30.96,17.14,66.29,25.71,105.99,25.71,42.09,0,79.97-9.02,113.65-27.06v-184.91Z"/>
      <g>
        <path class="cls-1" d="m396.21,1755.4c-23.53-12.66-42.03-30.21-55.5-52.65-13.47-22.45-20.2-47.82-20.2-76.12s6.73-53.68,20.2-76.12,31.97-40,55.5-52.65c23.53-12.65,50-18.97,79.4-18.97,24.74,0,47.13,4.35,67.14,13.06,19.99,8.71,36.8,21.22,50.4,37.55l-42.44,39.19c-19.32-22.31-43.27-33.47-71.84-33.47-17.68,0-33.47,3.88-47.34,11.63-13.89,7.76-24.7,18.57-32.45,32.45-7.76,13.88-11.64,29.66-11.64,47.35s3.87,33.47,11.64,47.35c7.75,13.88,18.56,24.7,32.45,32.45,13.87,7.75,29.66,11.63,47.34,11.63,28.57,0,52.52-11.29,71.84-33.88l42.44,39.18c-13.6,16.61-30.47,29.26-50.61,37.96-20.14,8.71-42.59,13.06-67.35,13.06-29.11,0-55.45-6.32-78.99-18.97Z"/>
        <path class="cls-1" d="m630.82,1483.76h66.12v231.84h143.27v53.87h-209.39v-285.71Z"/>
        <path class="cls-1" d="m1077.71,1708.25h-132.65l-25.3,61.22h-67.76l127.36-285.71h65.31l127.74,285.71h-69.39l-25.3-61.22Zm-20.81-50.21l-45.31-109.38-45.31,109.38h90.62Z"/>
        <path class="cls-1" d="m1233.86,1765.19c-21.09-6.12-38.03-14.08-50.81-23.88l22.45-49.79c12.24,8.98,26.8,16.19,43.67,21.63,16.87,5.45,33.74,8.16,50.62,8.16,18.77,0,32.65-2.78,41.63-8.36,8.98-5.57,13.47-12.99,13.47-22.25,0-6.79-2.66-12.44-7.97-16.93-5.29-4.5-12.1-8.1-20.41-10.82-8.29-2.72-19.52-5.72-33.67-8.98-21.76-5.17-39.59-10.33-53.46-15.51-13.89-5.17-25.78-13.47-35.71-24.9-9.93-11.43-14.91-26.67-14.91-45.72,0-16.59,4.5-31.63,13.47-45.1,8.98-13.47,22.51-24.15,40.61-32.05,18.1-7.88,40.21-11.83,66.33-11.83,18.24,0,36.07,2.18,53.48,6.53,17.41,4.35,32.65,10.61,45.71,18.77l-20.41,50.21c-26.39-14.96-52.79-22.45-79.18-22.45-18.51,0-32.19,3-41.02,8.98-8.85,5.99-13.27,13.88-13.27,23.68s5.1,17.08,15.31,21.84c10.2,4.76,25.78,9.45,46.73,14.08,21.76,5.17,39.59,10.35,53.48,15.51,13.87,5.17,25.78,13.34,35.71,24.49,9.93,11.16,14.89,26.26,14.89,45.3,0,16.33-4.56,31.23-13.66,44.69-9.12,13.47-22.8,24.15-41.02,32.05-18.24,7.88-40.42,11.83-66.53,11.83-22.59,0-44.42-3.06-65.51-9.18Z"/>
        <path class="cls-1" d="m1492.76,1765.19c-21.09-6.12-38.03-14.08-50.81-23.88l22.45-49.79c12.24,8.98,26.8,16.19,43.67,21.63,16.87,5.45,33.74,8.16,50.62,8.16,18.77,0,32.65-2.78,41.63-8.36,8.98-5.57,13.47-12.99,13.47-22.25,0-6.79-2.66-12.44-7.97-16.93-5.29-4.5-12.1-8.1-20.41-10.82-8.29-2.72-19.52-5.72-33.67-8.98-21.76-5.17-39.59-10.33-53.46-15.51-13.89-5.17-25.78-13.47-35.71-24.9-9.93-11.43-14.91-26.67-14.91-45.72,0-16.59,4.5-31.63,13.47-45.1,8.98-13.47,22.51-24.15,40.61-32.05,18.1-7.88,40.21-11.83,66.33-11.83,18.24,0,36.07,2.18,53.48,6.53,17.41,4.35,32.65,10.61,45.71,18.77l-20.41,50.21c-26.39-14.96-52.79-22.45-79.18-22.45-18.51,0-32.19,3-41.02,8.98-8.85,5.99-13.27,13.88-13.27,23.68s5.1,17.08,15.31,21.84,25.78,9.45,46.73,14.08c21.76,5.17,39.59,10.35,53.48,15.51,13.87,5.17,25.78,13.34,35.71,24.49,9.93,11.16,14.89,26.26,14.89,45.3,0,16.33-4.56,31.23-13.66,44.69-9.12,13.47-22.8,24.15-41.02,32.05-18.24,7.88-40.42,11.83-66.53,11.83-22.59,0-44.42-3.06-65.51-9.18Z"/>
      </g>
    </g>
  </g>
</svg>